<?xml version="1.0" standalone="no"?>
<!DOCTYPE svg PUBLIC "-//W3C//DTD SVG 20010904//EN"
 "http://www.w3.org/TR/2001/REC-SVG-20010904/DTD/svg10.dtd">
<svg version="1.0" xmlns="http://www.w3.org/2000/svg"
 width="1920.000000pt" height="1920.000000pt" viewBox="0 0 1920.000000 1920.000000"
 preserveAspectRatio="xMidYMid meet">

<g transform="translate(0.000000,1920.000000) scale(0.100000,-0.100000)"
fill="#000000" stroke="none">
<path d="M6465 15599 c-22 -5 -101 -11 -175 -15 -82 -4 -143 -11 -156 -19 -11
-7 -51 -16 -90 -20 -38 -4 -78 -14 -89 -21 -11 -8 -38 -14 -60 -14 -23 0 -53
-8 -70 -20 -16 -11 -44 -20 -62 -20 -17 0 -38 -7 -46 -15 -8 -8 -33 -17 -56
-21 -22 -4 -46 -13 -52 -20 -6 -8 -21 -14 -34 -14 -12 0 -32 -9 -45 -20 -13
-11 -34 -20 -47 -20 -13 0 -26 -6 -29 -14 -3 -8 -18 -18 -34 -21 -16 -3 -34
-13 -41 -21 -6 -8 -20 -14 -30 -14 -11 0 -27 -9 -36 -20 -10 -11 -23 -20 -30
-20 -10 0 -187 -113 -203 -130 -3 -3 -23 -17 -45 -32 -22 -15 -54 -40 -71 -55
-17 -15 -57 -50 -89 -78 -76 -64 -156 -144 -220 -220 -27 -32 -63 -72 -78 -89
-16 -17 -42 -52 -59 -78 -17 -27 -35 -48 -40 -48 -4 0 -8 -6 -8 -13 0 -8 -9
-22 -20 -32 -11 -10 -20 -22 -20 -27 0 -4 -15 -30 -34 -56 -18 -27 -36 -58
-40 -69 -4 -12 -13 -27 -21 -33 -8 -7 -15 -20 -15 -30 0 -9 -9 -25 -20 -35
-11 -10 -20 -28 -20 -40 0 -13 -7 -25 -15 -29 -8 -3 -15 -16 -15 -29 0 -13 -9
-34 -20 -47 -11 -13 -20 -33 -20 -45 0 -13 -7 -28 -15 -35 -8 -7 -17 -28 -21
-49 -4 -20 -12 -43 -19 -51 -7 -8 -16 -36 -19 -62 -4 -25 -14 -52 -21 -58 -9
-7 -15 -30 -15 -52 0 -21 -9 -56 -20 -78 -12 -24 -20 -59 -20 -90 0 -28 -5
-61 -12 -73 -16 -29 -42 -320 -42 -467 0 -147 26 -438 42 -467 7 -12 12 -43
12 -70 0 -26 9 -68 20 -92 11 -24 20 -56 20 -72 0 -16 9 -46 20 -66 11 -21 20
-49 20 -63 0 -15 7 -35 15 -46 8 -10 15 -31 15 -45 0 -15 9 -38 20 -52 11 -14
20 -33 20 -42 0 -14 19 -56 52 -115 4 -8 13 -26 18 -40 6 -14 15 -32 20 -40 6
-8 15 -26 20 -39 6 -13 24 -44 40 -68 17 -24 30 -47 30 -51 0 -4 18 -33 40
-65 22 -31 40 -60 40 -64 0 -3 7 -13 15 -22 9 -9 41 -50 73 -91 31 -42 66 -85
77 -96 83 -85 296 -359 312 -401 4 -10 22 -39 40 -65 18 -26 33 -54 33 -61 0
-8 9 -22 20 -32 11 -10 20 -26 20 -35 0 -10 6 -23 14 -29 8 -7 18 -25 21 -41
3 -16 13 -34 21 -41 8 -6 14 -21 14 -33 0 -11 9 -34 20 -51 11 -16 20 -41 20
-54 0 -14 7 -32 16 -42 9 -10 18 -37 21 -61 3 -24 11 -50 18 -58 7 -8 16 -43
20 -77 4 -34 13 -67 21 -74 10 -8 14 -34 14 -88 0 -43 6 -100 14 -127 12 -39
15 -166 18 -644 3 -550 2 -598 -14 -632 -10 -21 -18 -53 -18 -73 0 -19 -9 -52
-20 -72 -11 -21 -20 -45 -20 -54 0 -9 -7 -22 -15 -29 -8 -7 -15 -20 -15 -30 0
-9 -9 -29 -20 -43 -11 -14 -20 -28 -20 -31 0 -9 -57 -90 -84 -119 -14 -15 -26
-30 -26 -33 0 -6 -117 -121 -171 -169 -41 -36 -97 -75 -108 -75 -4 0 -16 -9
-26 -20 -10 -11 -26 -20 -35 -20 -10 0 -23 -6 -29 -14 -7 -8 -25 -18 -41 -21
-16 -3 -34 -13 -41 -21 -6 -8 -24 -14 -40 -14 -16 0 -46 -9 -66 -20 -37 -20
-57 -20 -1126 -20 -901 0 -1093 -2 -1115 -14 -15 -7 -48 -16 -74 -20 -25 -4
-52 -14 -58 -21 -7 -8 -20 -15 -30 -15 -9 0 -25 -9 -35 -20 -10 -11 -22 -20
-27 -20 -19 0 -115 -85 -155 -138 -23 -32 -50 -64 -58 -73 -8 -9 -15 -21 -15
-28 0 -7 -9 -24 -20 -38 -11 -14 -20 -36 -20 -48 0 -12 -6 -28 -14 -34 -7 -6
-16 -42 -19 -86 -4 -42 -14 -89 -22 -105 -10 -20 -15 -58 -15 -120 0 -66 -5
-100 -17 -123 -11 -21 -18 -64 -21 -127 -2 -52 -10 -113 -17 -135 -8 -22 -16
-83 -19 -137 -4 -53 -13 -112 -21 -132 -9 -20 -15 -67 -15 -109 0 -47 -7 -98
-20 -137 -13 -41 -20 -90 -20 -141 0 -43 -6 -96 -14 -116 -8 -21 -17 -82 -20
-137 -4 -54 -12 -108 -18 -120 -7 -11 -15 -70 -19 -131 -4 -62 -14 -126 -23
-147 -10 -24 -16 -67 -16 -118 0 -46 -6 -95 -14 -114 -7 -18 -17 -80 -21 -137
-4 -57 -12 -115 -18 -129 -6 -14 -14 -68 -17 -120 -4 -52 -9 -102 -11 -110 -4
-13 584 -15 5234 -18 l5239 -2 -7 41 c-4 23 -14 57 -21 75 -8 19 -14 68 -14
114 0 51 -6 94 -16 118 -9 22 -18 80 -21 142 -3 58 -11 116 -18 130 -7 14 -16
72 -20 128 -4 57 -13 119 -21 138 -8 19 -14 68 -14 116 -1 49 -7 99 -16 123
-9 22 -18 85 -21 140 -3 55 -11 111 -18 125 -8 14 -17 75 -21 135 -3 61 -13
122 -20 137 -8 16 -14 59 -14 106 0 52 -7 101 -20 142 -12 37 -20 90 -20 130
0 37 -7 87 -15 111 -9 23 -18 90 -22 148 -3 58 -10 115 -16 126 -6 11 -14 68
-17 126 -5 74 -12 113 -23 130 -10 13 -17 39 -17 57 0 19 -9 45 -20 59 -11 14
-20 34 -20 44 0 11 -4 19 -10 19 -5 0 -17 16 -25 36 -17 41 -179 208 -212 218
-11 4 -27 13 -33 21 -7 8 -19 15 -28 15 -8 0 -23 7 -33 16 -10 9 -37 18 -61
21 -24 3 -52 11 -63 17 -14 8 -340 12 -1126 16 -1036 5 -1108 6 -1126 23 -11
9 -32 17 -47 17 -23 0 -55 13 -126 52 -8 4 -28 15 -45 23 -51 26 -77 43 -84
52 -3 6 -27 22 -52 36 -53 31 -121 98 -212 209 -20 25 -37 50 -37 57 0 6 -4
11 -8 11 -11 0 -62 78 -62 94 0 7 -9 21 -20 31 -11 10 -20 27 -20 38 0 11 -7
28 -15 37 -9 10 -19 35 -22 56 -3 22 -13 47 -22 58 -14 16 -16 90 -16 740 0
644 2 724 16 751 9 17 19 58 22 92 3 34 12 72 21 85 9 13 16 43 16 69 0 29 6
51 15 59 8 7 15 27 15 45 0 18 9 42 20 55 11 13 20 34 20 47 0 13 9 31 20 40
11 10 20 27 20 39 0 11 9 31 20 44 11 13 20 31 20 40 0 10 6 23 14 29 8 7 18
26 21 42 4 17 13 33 21 36 8 3 14 10 14 17 0 15 128 210 140 214 6 2 10 8 10
12 0 18 45 78 115 154 82 88 196 228 235 286 8 13 24 35 35 49 26 34 43 61 54
86 5 12 16 27 25 34 9 7 16 21 16 31 0 9 9 25 20 35 11 10 20 26 20 37 0 10 4
18 8 18 5 0 16 17 25 38 9 20 20 44 25 52 31 54 52 102 52 118 0 11 7 25 15
32 8 7 15 20 15 29 0 9 9 33 20 54 11 20 20 47 20 59 0 13 9 37 20 53 11 17
20 45 20 63 0 18 6 43 14 55 8 12 17 49 21 81 4 33 13 69 20 80 7 12 15 59 18
106 3 47 12 103 20 125 22 60 23 549 1 608 -8 23 -18 80 -21 127 -3 47 -11 94
-18 106 -7 11 -16 47 -20 80 -4 32 -13 69 -21 81 -8 12 -14 37 -14 55 0 18 -9
47 -20 63 -11 17 -20 40 -20 53 0 12 -9 39 -20 59 -11 21 -20 45 -20 54 0 9
-7 22 -15 29 -8 7 -15 23 -15 35 0 12 -9 34 -20 48 -11 14 -20 34 -20 45 0 10
-9 27 -20 37 -11 10 -20 26 -20 36 0 10 -5 21 -10 24 -6 4 -17 21 -25 38 -8
18 -24 46 -35 62 -11 17 -25 41 -32 55 -7 14 -16 27 -20 30 -10 8 -58 80 -58
88 0 4 -8 15 -17 24 -10 9 -26 27 -35 40 -72 97 -119 150 -235 266 -73 72
-137 132 -141 132 -4 0 -15 8 -24 18 -9 9 -34 30 -57 46 -23 17 -41 33 -41 38
0 4 -6 8 -13 8 -8 0 -22 9 -32 20 -10 11 -23 20 -30 20 -7 0 -20 9 -30 20 -10
11 -24 20 -32 20 -7 0 -13 4 -13 10 0 5 -15 17 -32 25 -18 8 -46 24 -63 35
-16 11 -44 27 -62 35 -17 8 -34 19 -38 25 -3 5 -14 10 -24 10 -10 0 -30 9 -44
20 -14 11 -33 20 -42 20 -9 0 -28 9 -42 20 -14 11 -36 20 -48 20 -12 0 -28 7
-35 15 -7 8 -22 15 -34 15 -12 0 -38 9 -59 20 -20 11 -49 20 -64 20 -16 0 -41
9 -58 20 -18 12 -47 20 -71 20 -23 0 -47 6 -53 14 -6 7 -42 16 -82 20 -39 3
-83 12 -97 20 -16 8 -81 16 -157 20 -71 3 -150 11 -175 16 -55 11 -190 11
-245 -1z m370 -617 c80 -6 130 -14 150 -25 17 -9 51 -17 76 -17 25 0 54 -7 65
-15 10 -8 30 -15 44 -15 14 0 42 -9 63 -20 20 -11 46 -20 58 -20 11 0 32 -9
46 -20 14 -11 36 -20 48 -20 12 0 28 -6 34 -14 7 -8 25 -18 41 -21 16 -3 34
-13 41 -21 6 -8 17 -14 24 -14 7 0 24 -9 38 -20 14 -11 32 -20 41 -20 8 0 19
-6 23 -12 8 -14 68 -58 78 -58 3 0 58 -42 123 -94 113 -90 189 -164 262 -255
19 -24 43 -51 53 -59 9 -9 17 -22 17 -29 0 -7 4 -13 8 -13 8 0 82 -106 105
-150 4 -8 19 -33 32 -55 13 -22 31 -54 39 -71 7 -17 19 -35 25 -38 6 -4 11
-16 11 -28 0 -11 9 -31 20 -45 11 -14 20 -38 20 -53 0 -15 6 -33 14 -39 8 -7
17 -29 21 -51 4 -21 13 -46 20 -57 8 -10 15 -34 15 -53 0 -19 9 -53 20 -75 12
-25 19 -62 20 -98 0 -32 7 -74 16 -95 13 -29 17 -86 21 -272 5 -226 5 -237
-16 -277 -14 -28 -21 -61 -21 -98 0 -36 -7 -68 -20 -92 -11 -21 -20 -54 -20
-73 0 -20 -6 -44 -14 -55 -7 -11 -17 -39 -21 -62 -3 -23 -13 -47 -21 -54 -8
-6 -14 -23 -14 -36 0 -14 -9 -36 -20 -50 -11 -14 -20 -34 -20 -43 0 -10 -6
-23 -14 -29 -8 -7 -18 -26 -21 -42 -4 -16 -11 -31 -16 -35 -5 -3 -16 -20 -24
-37 -16 -34 -21 -43 -72 -119 -18 -26 -33 -51 -33 -54 0 -6 -64 -87 -100 -126
-8 -9 -19 -23 -25 -30 -22 -29 -80 -96 -124 -143 -59 -63 -121 -141 -121 -151
0 -4 -9 -17 -19 -28 -32 -35 -131 -186 -131 -200 0 -7 -9 -21 -20 -31 -11 -10
-20 -25 -20 -32 0 -8 -9 -26 -20 -40 -11 -14 -20 -31 -20 -38 0 -7 -7 -18 -15
-25 -8 -7 -15 -20 -15 -30 0 -9 -9 -29 -20 -43 -11 -14 -20 -34 -20 -45 0 -11
-6 -25 -14 -31 -8 -7 -17 -27 -20 -45 -4 -19 -13 -39 -21 -46 -8 -7 -15 -25
-15 -40 0 -15 -9 -39 -20 -53 -11 -14 -20 -39 -20 -55 0 -16 -6 -35 -14 -41
-8 -7 -18 -37 -21 -66 -4 -30 -13 -60 -21 -66 -8 -7 -14 -30 -14 -55 0 -25 -9
-60 -20 -81 -14 -27 -20 -57 -20 -106 0 -46 -6 -78 -17 -100 -17 -30 -18 -88
-18 -807 0 -716 2 -777 18 -807 9 -18 17 -49 17 -70 0 -21 9 -51 20 -68 11
-16 20 -44 20 -61 0 -17 7 -37 15 -44 8 -7 17 -27 21 -46 3 -18 12 -38 20 -45
8 -6 14 -18 14 -26 0 -8 9 -26 20 -40 11 -14 20 -34 20 -45 0 -10 6 -21 14
-24 8 -3 20 -18 26 -32 18 -44 38 -75 54 -84 9 -5 16 -15 16 -22 0 -7 9 -21
20 -31 11 -10 20 -21 20 -26 0 -28 256 -277 353 -342 23 -15 44 -31 47 -35 7
-10 40 -30 78 -47 17 -9 32 -19 32 -24 0 -5 14 -12 31 -16 17 -4 33 -13 36
-21 3 -8 16 -14 29 -14 13 0 32 -9 41 -20 10 -11 29 -20 44 -20 15 0 32 -7 39
-15 6 -7 31 -17 55 -21 25 -3 50 -12 56 -20 6 -8 28 -14 48 -14 20 0 62 -9 94
-20 55 -20 82 -20 1120 -20 l1063 0 35 -25 c37 -28 46 -52 48 -133 0 -29 6
-63 13 -75 7 -12 15 -72 18 -134 4 -71 12 -118 20 -128 9 -10 16 -56 19 -123
5 -79 11 -114 24 -132 13 -19 17 -45 17 -126 0 -68 5 -114 15 -137 9 -22 15
-68 15 -115 0 -52 7 -101 20 -142 13 -39 20 -90 20 -137 0 -44 6 -89 15 -111
9 -20 18 -79 21 -132 3 -52 12 -114 20 -136 10 -28 14 -72 12 -135 l-3 -94
-4514 -3 c-3329 -1 -4517 1 -4527 9 -18 15 -18 68 1 112 9 22 15 68 15 115 0
52 7 101 20 142 13 39 20 90 20 136 0 41 6 91 14 111 8 21 17 83 20 138 4 55
13 118 21 140 8 22 14 72 15 111 0 43 8 97 20 134 13 41 20 90 20 142 0 44 6
93 14 112 7 18 17 80 21 137 4 57 13 115 20 129 7 14 15 72 17 130 4 70 11
115 22 135 9 17 16 35 16 42 0 7 9 17 20 23 14 7 364 12 1107 16 946 4 1091 7
1111 20 13 8 46 18 75 21 31 3 59 13 70 24 11 12 32 19 56 19 25 0 41 5 45 15
3 8 17 15 31 15 14 0 43 9 63 20 20 10 44 22 52 25 8 3 33 16 55 30 22 13 49
28 60 33 12 6 27 17 34 26 7 9 18 16 23 16 9 0 66 38 83 56 5 6 35 30 65 54
62 50 166 152 225 223 22 27 47 56 55 64 15 17 34 46 46 73 4 8 14 23 22 33
16 18 33 45 54 87 7 14 18 29 25 33 7 4 13 18 13 31 0 13 9 31 20 41 11 10 20
27 20 37 0 11 9 31 20 45 11 14 20 35 20 46 0 11 7 28 16 38 9 10 18 37 21 61
3 24 12 52 19 63 8 11 14 40 14 65 0 26 9 80 20 121 18 70 20 108 20 674 0
496 -3 610 -15 660 -8 33 -18 105 -21 160 -4 55 -12 109 -19 120 -6 11 -15 48
-18 83 -4 35 -14 73 -22 85 -8 12 -15 37 -15 57 0 19 -9 52 -20 73 -11 20 -20
50 -20 66 0 16 -6 34 -14 40 -7 6 -16 29 -20 50 -3 21 -13 44 -21 51 -8 7 -15
23 -15 35 0 12 -9 34 -20 48 -11 14 -20 34 -20 45 0 11 -7 25 -15 32 -8 7 -15
20 -15 30 0 9 -9 29 -20 43 -11 14 -20 32 -20 40 0 7 -9 24 -20 37 -11 13 -20
32 -20 42 0 10 -6 21 -14 24 -8 3 -20 18 -26 32 -15 37 -33 68 -53 90 -10 10
-17 26 -17 35 0 9 -6 20 -13 24 -6 4 -25 28 -42 53 -46 70 -201 265 -256 323
-27 29 -62 70 -76 92 -15 22 -32 45 -37 50 -12 11 -20 24 -64 94 -15 24 -35
52 -44 62 -10 10 -20 30 -24 43 -3 14 -12 27 -20 30 -8 3 -14 13 -14 22 0 9
-9 27 -20 41 -11 14 -20 34 -20 43 0 10 -6 23 -14 29 -8 7 -18 26 -22 44 -3
17 -13 37 -20 45 -8 7 -14 23 -14 35 0 12 -9 36 -20 52 -11 17 -20 44 -20 60
0 17 -7 40 -15 52 -8 11 -18 47 -21 79 -4 33 -13 68 -20 79 -9 12 -14 48 -14
95 0 41 -7 126 -16 188 -15 105 -15 122 0 220 9 59 16 141 16 182 0 47 5 83
14 95 7 11 16 46 20 79 3 32 13 68 21 79 8 12 15 35 15 52 0 16 9 44 20 60 11
17 20 42 20 56 0 15 7 32 15 39 8 7 17 27 21 46 3 18 12 38 20 45 8 6 14 19
14 29 0 9 9 27 20 40 11 13 20 29 20 36 0 7 7 19 15 28 8 8 19 25 25 38 12 28
28 54 55 89 11 14 27 36 35 49 29 44 94 125 129 161 20 20 57 59 82 85 41 44
94 92 185 168 18 14 37 26 42 26 6 0 15 6 19 13 9 14 130 97 142 97 4 0 18 9
31 20 13 11 31 20 40 20 10 0 20 7 24 15 3 8 14 15 24 15 11 0 31 9 45 20 14
11 33 20 44 20 10 0 32 9 48 20 17 11 42 20 56 20 15 0 32 7 39 15 7 8 34 18
61 21 27 4 54 13 60 20 7 8 31 14 58 14 25 1 64 9 86 20 30 14 64 20 135 21
52 1 109 5 125 9 32 9 184 6 380 -8z"/>
<path d="M10505 15185 c-103 -22 -214 -71 -400 -176 -314 -178 -454 -242 -610
-283 -79 -20 -260 -43 -413 -52 l-123 -7 20 -21 c31 -34 190 -313 232 -408 36
-81 73 -176 120 -303 10 -27 25 -76 34 -108 13 -48 19 -58 33 -52 72 27 352
118 417 134 444 112 1151 118 1625 15 561 -123 1075 -367 1528 -726 151 -120
455 -421 570 -566 182 -227 309 -428 442 -697 148 -299 242 -570 308 -885 57
-272 65 -375 59 -760 -7 -425 -28 -628 -94 -895 -56 -228 -140 -452 -263 -704
-221 -449 -476 -793 -815 -1096 -397 -355 -766 -580 -1245 -761 -76 -28 -114
-47 -111 -56 2 -7 7 -56 11 -108 5 -52 15 -120 24 -150 9 -30 16 -83 16 -117
0 -34 5 -74 11 -90 6 -15 15 -75 20 -132 5 -58 16 -127 24 -155 8 -27 15 -67
15 -89 0 -31 3 -38 15 -33 25 9 256 25 470 31 299 9 473 30 564 66 152 61 263
148 369 288 32 43 118 174 192 292 304 489 396 581 839 844 351 207 450 295
546 484 66 132 71 164 90 581 30 666 43 717 329 1228 172 307 211 418 210 592
0 102 -4 125 -32 207 -35 104 -93 222 -212 433 -245 437 -273 553 -300 1240
-12 300 -20 360 -63 460 -92 213 -193 307 -612 565 -431 266 -540 379 -820
844 -192 320 -293 430 -472 518 -124 60 -185 69 -594 88 -635 29 -715 50
-1162 302 -338 190 -455 234 -631 232 -56 0 -128 -6 -161 -14z"/>
<path d="M10470 13559 c-221 -10 -461 -46 -635 -94 -27 -8 -65 -17 -84 -20
-19 -3 -90 -25 -158 -48 l-124 -42 1 -320 c0 -292 -1 -326 -20 -392 -11 -40
-20 -97 -20 -128 0 -30 -8 -83 -19 -117 -10 -35 -29 -106 -41 -158 -13 -52
-30 -115 -40 -140 -10 -25 -36 -92 -58 -150 -23 -57 -40 -105 -38 -107 2 -2
401 168 887 377 486 210 888 382 893 383 10 2 196 -415 196 -437 0 -6 -414
-189 -919 -406 l-919 -395 46 -22 c108 -50 203 -93 206 -93 2 0 53 -23 112
-50 60 -28 118 -55 129 -60 11 -5 55 -25 98 -44 42 -20 79 -36 81 -36 2 0 46
-20 97 -44 52 -24 117 -54 144 -66 28 -12 67 -31 89 -41 21 -10 43 -16 47 -13
5 3 9 1 9 -5 0 -5 9 -13 21 -16 11 -4 62 -26 112 -50 216 -101 270 -124 277
-120 5 3 10 1 12 -3 5 -14 138 -73 148 -67 6 3 10 2 10 -3 0 -5 43 -29 95 -53
52 -24 95 -48 95 -54 0 -6 -7 -37 -15 -70 -9 -32 -14 -64 -11 -71 3 -7 1 -14
-3 -16 -5 -2 -45 -151 -90 -333 -45 -181 -88 -355 -96 -385 -23 -88 -46 -180
-61 -249 -8 -35 -16 -66 -19 -70 -6 -11 -18 -72 -19 -101 -1 -14 -4 -27 -7
-30 -5 -4 -158 -602 -174 -680 -2 -8 -12 -48 -23 -88 -13 -47 -16 -72 -8 -69
6 3 414 179 906 392 492 213 904 389 915 392 18 4 31 -22 113 -214 51 -120 92
-220 92 -223 0 -3 -349 -156 -775 -340 -426 -184 -775 -336 -775 -339 0 -3 40
-26 88 -51 69 -36 109 -67 194 -149 167 -161 244 -287 297 -481 16 -62 32
-115 36 -118 8 -9 232 83 369 153 333 168 569 338 832 600 294 293 477 553
640 911 131 287 223 562 276 827 22 107 23 133 23 577 0 521 -2 535 -76 807
-227 825 -687 1471 -1371 1923 -397 262 -840 433 -1303 501 -103 15 -503 44
-525 37 -3 0 -75 -4 -160 -9z"/>
<path d="M8677 11002 c-42 -48 -89 -106 -104 -128 -16 -23 -52 -77 -81 -120
-126 -186 -251 -485 -282 -671 -4 -29 -14 -69 -21 -90 -20 -57 -20 -1247 0
-1318 57 -206 236 -416 443 -521 l47 -24 685 0 686 0 6 28 c3 15 10 41 15 58
5 17 11 41 14 53 2 11 11 49 20 84 9 34 19 72 21 84 2 12 9 34 14 48 5 14 7
25 5 25 -2 0 0 11 5 25 5 14 12 36 14 48 2 12 12 50 21 84 9 35 18 71 20 80 2
10 45 180 94 378 50 198 89 365 87 372 -3 6 -1 13 4 15 7 3 56 181 95 348 7
30 31 128 54 216 23 89 41 166 41 170 0 5 -15 15 -32 23 -18 8 -55 25 -82 37
-27 13 -52 21 -57 19 -4 -3 -9 -1 -11 4 -2 7 -211 111 -224 111 -2 0 -45 20
-96 44 -51 24 -118 55 -148 68 -30 14 -77 36 -105 48 -27 12 -79 36 -115 52
-36 17 -110 50 -165 75 -55 24 -113 51 -129 59 -16 7 -32 11 -36 9 -5 -3 -10
-1 -12 5 -1 5 -127 66 -278 135 -151 69 -286 131 -300 137 -14 7 -28 13 -31
15 -4 1 -41 -37 -82 -85z"/>
<path d="M1402 3577 l3 -302 5190 0 5190 0 0 300 0 300 -5193 2 -5192 3 2
-303z"/>
</g>
</svg>
