<svg xmlns="http://www.w3.org/2000/svg" shape-rendering="geometricPrecision" text-rendering="geometricPrecision" image-rendering="optimizeQuality" fill-rule="evenodd" clip-rule="evenodd" viewBox="0 0 512 463.29"><path d="M118.75 258.77c19.44-4.34 21.73-5.29 33.61-11.1 29.54 56.82 124.02 55.53 141.37-.05 10.02 5.09 13.51 6.47 25.32 9.22-.72 3.06-1.24 6.21-1.52 9.45l-14.34-4.92 11.65 31.79-5.29 6.58c-13.92 1.16-26.54 2.92-33.96 5.3-17.94 5.76-33.38 15.22-43.42 28.78v113.92c40.43-22.79 91.17-31.24 137.85-28.02V323.7l24.59-6.22v-9.84c6.2-1.64 12.1-3.53 17.68-5.68 1.06-.4 2.1-.81 3.13-1.24 16.11 16.83 31.25 39.57 30.54 61.75-.44 13.78-24.06 26.01-60.2 35.11.37 16.13.64 32.27.64 48.44-60.59-11.99-88.19-8.3-136 8.46-34.07 11.96-20.92 11.64-55.23-.31-47.82-16.67-75.33-20.1-135.59-8.05 0-20.01.38-36.26.92-50.8C23.85 386.04 0 374.33 0 362.44c0-12.55 4.41-25.17 11.13-36.8 9.42-16.32 23.4-30.75 36.08-40.43 18.57-14.2 40.53-19.52 71.54-26.44zm216.97 52.91c-1.71 5.56-3.72 11.04-5.64 16.49 12.88-.1 31.58-56.54 45.09-76.97 17.82-26.94 37.84-48.9 64.37-67.31 14.13-9.8 32.37-20.78 49.32-24.67 4.63-1.06 9.38-1.68 14.27-1.7-52.04 16.96-91.57 48.94-121.37 94.23-12.16 18.46-22.36 38.68-31.5 59.85l20.54 1.86-8.79-3.42 29.66-7.51c-11.52-2.94-22.43-.62-26.37-4.55 30.85-4.2 55.7-13.18 72.4-27.78-6.74-.33-14.48-.47-18.65-2.03 29.03-12.82 44.69-32.58 65.21-50.71-28.01 8.58-54.51 9.97-62.65 5.24 50.72-.82 82.01-17.67 89.99-53.8.62-3.88.55-7.73-.41-11.53-6.19-24.74-51.38-29.21-63.98-7.31-2.51 4.38-6.25 8.51-9.2 13.59l11.43-27.06c-35.9 15.85-37.7 29.93-53.11 73.2.37-12.78 2.85-24.55 6.43-35.78-44.65 22.03-56.01 68.38-55.03 106.84-2.53-13.22-1.58-30.2 1.48-49.46-12.28 14.76-20.04 31.48-14.71 53.87l-6.44-2.21 4.35 11.89-9.64-3.55 12.95 20.29zM213.76 446.26V333.59c-9.64-14.42-25.23-24.06-42.84-29.78-19.97-6.49-74.37-7.94-93.94-5.59l-1.02 121.97c43.58-1.33 99.84 2.62 137.8 26.07zm99.7-274.14V140.4c1.46-6.13 3.5-6.73 6.53-7.31 8.21-1.26 7.26 36.93-6.53 39.03zm-67.43-31.6c-1.74.69-3.62-.39-4.26-2.32-.6-1.98.34-4.16 2.08-4.81 13.38-5.19 22.93-4.85 36.36 0 1.73.65 2.72 2.77 2.18 4.75-.55 1.99-2.43 3.07-4.16 2.48-2.23-.78-4.46-1.48-6.69-1.97.24.78.35 1.63.35 2.52 0 12.31-18.72 12.28-18.72 0 0-1.29.24-2.48.69-3.56-3.96.39-3.87 1.39-7.83 2.91zm-76.72 0c-1.74.69-3.62-.39-4.26-2.32-.6-1.98.34-4.16 2.08-4.81 13.38-5.19 22.93-4.85 36.36 0 1.73.65 2.72 2.77 2.18 4.75-.55 1.99-2.43 3.07-4.16 2.48-2.23-.78-4.46-1.48-6.69-1.97.24.78.35 1.63.35 2.52 0 12.31-18.73 12.28-18.73 0 0-1.29.25-2.48.7-3.56-3.96.39-3.87 1.39-7.83 2.91zm42.48 37.63a3.984 3.984 0 0 1-.5-5.62 3.987 3.987 0 0 1 5.63-.5c2.01 1.69 3.93 2.56 5.76 2.56 1.83.04 3.85-.82 6-2.61 1.69-1.42 4.2-1.15 5.62.55 1.42 1.69 1.14 4.21-.55 5.62-3.66 3.02-7.41 4.49-11.16 4.39-3.79-.05-7.37-1.55-10.8-4.39zM252.63 204c-3.23 1.1-6.55 2.02-9.99 2.77-3.52.97-6.77 1.57-9.64 1.64-3.3.06-6.11-.56-8.37-2.05-.68-.45-1.3-.94-1.84-1.46-.54.52-1.16 1.01-1.84 1.46-2.26 1.51-5.08 2.11-8.36 2.05-2.88-.07-6.13-.65-9.65-1.64a92.39 92.39 0 0 1-9.99-2.77 96.062 96.062 0 0 1-9.43-3.78c-1.48-.69-2.08-2.34-1.33-3.72.45-.81 1.27-1.33 2.17-1.47 1.63-.27 2.94-.44 4.17-.61l.1-.02c3.96-.54 6.98-.97 10.7-2.45 1.06-.41 2.06-.88 3.09-1.35 5.91-2.74 12.38-5.72 18.84-.6.56.45 1.08.89 1.53 1.39.45-.5.96-.94 1.52-1.39 6.45-5.14 12.94-2.15 18.85.6 1.03.47 2.04.94 3.09 1.35 3.69 1.48 6.74 1.91 10.7 2.45l.1.02c1.22.17 2.53.34 4.17.61.9.14 1.74.66 2.17 1.47.75 1.36.15 3.03-1.33 3.72a91.338 91.338 0 0 1-9.43 3.78zM113.37 59.75c2.91-24.27 14.22-34.01 32.78-31.21C163.8 10.09 188.72-.22 223.04.05c38.19-.78 70.79 8.16 94.45 32.4 12.43 12.38 17.75 25.31 14.53 52.58.49 19.95 6.46 28.58-11.15 39.65 4.83-.34 8.2 2.65 10.23 7.75 1 2.57 1.65 5.67 1.92 9.09.23 3.18.2 6.71-.23 10.27-1.42 13-7.4 26.55-18.44 28.15-.51.08-.96.08-1.43.04v1.88c2.4 59.35-82.23 112-138.81 65.15-17.26-14.33-36.05-32.07-40.81-54.72-.07-.39-.11-.8-.11-1.19v-11.12c-.57.11-1.18.11-1.8 0-11.09-1.61-17.03-15.19-18.45-28.15-.38-3.56-.45-7.09-.22-10.28.27-3.41.92-6.55 1.91-9.08 2.19-5.56 6.02-8.63 11.51-7.59 2.64.49 5.06 1.84 7.05 4.13v-4.52c-6.46-3.64-5.35-5.72-4.87-13.65-12.73-21.22-14.95-27.54-14.95-51.09zm187.6 59.22c-5.29-14.8-12.28-16.49-25.01-24.28-10.7-4.64-20.06-8.55-28.96-11.35-21.54-4.8-45.24-3.42-64.83 3.15-5.23 2.02-10.75 4.52-16.68 7.47-12.51 7.32-18.3 8.02-20.95 20.52v76.62c4.45 21.36 4.14 17.37 17.83 30.76l23.74 23.24c4.29 3.52 9.13 5.59 14.26 6.83 17.56 4.13 54.5 2.48 68.34-12.09 20.64-20.05 33.64-26.12 32.18-58.17v-62.7h.08zM203.33 221.4c-1.73-.93-2.38-3.07-1.45-4.76.91-1.72 3.06-2.37 4.74-1.45 5.45 2.87 10.78 4.33 16.04 4.37 5.25 0 10.5-1.42 15.79-4.33 1.73-.92 3.84-.31 4.8 1.37.92 1.69.3 3.84-1.38 4.8-6.33 3.49-12.7 5.21-19.18 5.17-6.52-.03-12.95-1.76-19.36-5.17zm-71.18-49.28V140.4c-1.45-6.13-3.2-6.42-6.22-7-8.17-1.26-8.01 35.65 6.22 38.72z"/></svg>