<?xml version="1.0" encoding="utf-8"?><svg version="1.1" id="Layer_1" xmlns="http://www.w3.org/2000/svg" xmlns:xlink="http://www.w3.org/1999/xlink" x="0px" y="0px" viewBox="0 0 122.879 88.057" enable-background="new 0 0 122.879 88.057" xml:space="preserve"><g><path d="M60.033,55.557c-0.61,0.332-1.37,0.107-1.697-0.499c-0.332-0.609-0.107-1.37,0.502-1.696 c2.88-1.563,4.221-3.584,4.491-5.561c0.144-1.055-0.021-2.114-0.417-3.097c-0.405-0.993-1.047-1.897-1.86-2.625 c-1.584-1.415-3.805-2.16-6.125-1.583c-0.941,0.233-1.754,0.703-2.467,1.367c-0.757,0.703-1.411,1.624-1.984,2.711 c-0.323,0.614-1.08,0.848-1.689,0.528c-0.614-0.323-0.847-1.08-0.528-1.689c0.703-1.334,1.526-2.479,2.499-3.387 c1.019-0.945,2.201-1.624,3.575-1.964c3.191-0.79,6.23,0.217,8.389,2.147c1.098,0.981,1.969,2.206,2.517,3.555 c0.552,1.363,0.777,2.859,0.568,4.376C65.437,50.85,63.702,53.564,60.033,55.557L60.033,55.557L60.033,55.557z M95.493,78.362 h0.854c0.775,0,1.409-0.633,1.409-1.409v-2.288c0-0.775-0.634-1.407-1.409-1.407h-5.098c-0.775,0-1.408,0.632-1.408,1.407v2.288 c0,0.776,0.633,1.409,1.408,1.409h0.867l-1.662,8.493h6.643L95.493,78.362L95.493,78.362L95.493,78.362z M9.851,88.039V50.395 c-2.002,0.771-3.876,0.787-5.433,0.258c-1.216-0.412-2.242-1.147-2.995-2.097c-0.754-0.95-1.232-2.105-1.378-3.38 c-0.222-1.977,0.368-4.21,2.054-6.306l0,0c0.085-0.102,0.179-0.205,0.291-0.291L51.208,0.472c0.633-0.582,1.609-0.641,2.311-0.094 l32.55,25.305l-0.305,0.104c-4.906,1.702-9.154,4.79-11.706,9.272c-9.218-7.405-19.367-15.417-21.31-16.928 c-3.927,2.986-38.107,29.303-38.107,30.415v39.511L9.851,88.039L9.851,88.039L9.851,88.039z M80.221,3.039L94.91,3.638v19.841 l-14.689-9.694V3.039L80.221,3.039L80.221,3.039L80.221,3.039z M64.717,86.855c0.658-8.566-1.022-8.194,6.154-10.887 c3.579-1.343,8.154-3.044,11.447-5.091l6.146,15.978H64.717L64.717,86.855L64.717,86.855z M86.582,65.963 c0.156-1.317-3.742-6.337-4.452-8.741c-1.526-2.433-2.067-6.285-0.404-8.854c0.664-1.017,0.378-2.835,0.378-4.236 c0-13.964,24.465-13.971,24.465,0c0,1.766-0.404,3.108,0.554,4.497c1.604,2.321,0.776,6.435-0.573,8.593 c-0.866,2.528-4.961,7.308-4.674,8.741C102.116,73.134,86.536,72.893,86.582,65.963L86.582,65.963L86.582,65.963z M105.564,70.142 c3.006,1.923,7.269,3.5,10.678,4.641c6.694,2.236,6.676,2.543,6.63,12.073H99.209L105.564,70.142L105.564,70.142L105.564,70.142z M50.437,65.444c-4.744-6.373-4.86-12.411,0.9-18.023l-4.148-2.291c-3.322-1.292-9.416,8.234-7.061,10.779l3.232,4.794 l-0.667,1.391c-0.184,0.413-0.004,0.703,0.446,0.904l0.438,0.118l-8.406,16.637l1.701,3.628l3.404-1.002l0.876-1.701l-0.839-1.571 l1.849-0.396l0.43-0.835l-0.966-1.473l0.634-1.231l1.845-0.232l0.601-1.165l-1.031-1.348l0.659-1.275l1.881-0.307l2.561-4.889 l0.434,0.237C49.962,66.651,50.351,66.356,50.437,65.444L50.437,65.444L50.437,65.444z M59.367,69.44l-1.252,4.672L56.376,74.8 l-0.364,1.361l1.268,1.076l-0.331,1.239l-1.718,0.605l-0.352,1.309l1.231,1.207l-0.237,0.888l-1.69,0.765l1.129,1.33l-0.487,1.812 l-3.047,1.665l-2.381-3.121l4.541-16.947l-1.1-0.295c-0.224-0.061-0.364-0.294-0.302-0.523l0.462-1.722 c-3.329-2.524-4.979-6.893-3.833-11.175c1.473-5.503,7.028-8.824,12.534-7.589c0.025,0.295,0.021,0.593-0.02,0.892 c-0.103,0.744-0.426,1.51-1.023,2.25c-0.081,0.099-0.167,0.2-0.257,0.299c-1.759-0.114-3.407,1.022-3.881,2.79 c-0.205,0.761-0.16,1.529,0.081,2.221c0.058,0.246,0.152,0.483,0.275,0.716c0.29,0.532,0.716,0.937,1.214,1.194 c0.328,0.218,0.696,0.38,1.093,0.491c1.976,0.527,4-0.609,4.589-2.553c0.597-0.527,1.117-1.084,1.563-1.657 c0.867-1.117,1.46-2.303,1.812-3.509c2.39,2.577,3.441,6.287,2.464,9.936c-1.146,4.282-4.767,7.245-8.906,7.765l-0.462,1.721 c-0.061,0.227-0.295,0.364-0.523,0.304L59.367,69.44L59.367,69.44L59.367,69.44z"/></g></svg>